# xmcd
#
# Track frame offsets:
#	150
#	2612
#	13285
#	29531
#	49052
#	67741
#	85813
#	103351
#	119088
#	145723
#	164428
#	178764
#	198164
#	213758
#	231403
#	249152
#	260738
#	281116
#	305203
#
# Disc length: 4305 seconds
#
# Revision: 0
# Processed by: cddbd v1.5.1PL0 Copyright (c) Steve Scherf et al.
# Submitted via: EasyCDDAExtractor 8.0.1.1
#
DISCID=1710cf13
DTITLE=Aaron Watson - Live at the Texas Hall of Fame
DYEAR=2005
DGENRE=Country
TTITLE0=Intro
TTITLE1=The Right Place
TTITLE2=Songs about Saturday Night
TTITLE3=Next to Heaven
TTITLE4=What She Don't Know
TTITLE5=Heaven Help the Heart
TTITLE6=Silver Wings
TTITLE7=Some Never Will
TTITLE8=The Notel Motel
TTITLE9=If You're Not In Love (Foggy Mountain Breakdown)
TTITLE10=Honky Tonkin' Around Texas
TTITLE11=Shut Up and Dance
TTITLE12=Diesel Drivin' Daddy
TTITLE13=Reckless
TTITLE14=Off the Record
TTITLE15=Thanks A Lot
TTITLE16=I Don't Wan't You to Go (When All Those Aggies Move to Austin)
TTITLE17=The Honky Tonk Kid
TTITLE18=Something With a Swing To It
EXTD=
EXTT0=
EXTT1=
EXTT2=
EXTT3=
EXTT4=
EXTT5=
EXTT6=
EXTT7=
EXTT8=
EXTT9=
EXTT10=
EXTT11=
EXTT12=
EXTT13=
EXTT14=
EXTT15=
EXTT16=
EXTT17=
EXTT18=
PLAYORDER=
